<?xml version="1.0" standalone="no"?>
<!DOCTYPE svg PUBLIC "-//W3C//DTD SVG 20010904//EN"
 "http://www.w3.org/TR/2001/REC-SVG-20010904/DTD/svg10.dtd">
<svg version="1.0" xmlns="http://www.w3.org/2000/svg"
 width="144.000000pt" height="144.000000pt" viewBox="0 0 144.000000 144.000000"
 preserveAspectRatio="xMidYMid meet">

<g transform="translate(0.000000,144.000000) scale(0.100000,-0.100000)"
fill="#000000" stroke="none">
<path d="M454 1265 c-9 -14 -24 -25 -33 -25 -39 0 -84 -38 -139 -120 l-57 -85
-70 -3 c-113 -4 -117 -6 -113 -55 3 -40 5 -42 38 -45 19 -2 39 -7 44 -12 5 -6
-4 -37 -24 -77 -31 -63 -34 -77 -38 -185 -3 -91 -1 -129 12 -167 9 -27 16 -73
16 -101 0 -44 5 -56 29 -81 26 -25 37 -29 86 -29 68 0 86 9 114 55 l20 35 385
0 c336 0 387 -2 400 -16 9 -8 16 -22 16 -29 0 -26 43 -45 103 -45 83 0 107 18
107 81 0 28 7 66 15 86 11 26 15 75 15 190 0 155 0 155 -32 214 -34 66 -32 76
22 81 32 3 35 6 38 36 5 52 -10 62 -98 62 -87 0 -85 -1 -143 95 -45 77 -73
102 -120 110 -24 5 -44 16 -54 31 -20 31 -37 30 -57 -1 l-16 -25 -195 0 -195
0 -16 25 c-9 14 -22 25 -30 25 -7 0 -21 -11 -30 -25z m614 -102 c21 -18 122
-178 122 -193 0 -4 -7 -11 -16 -14 -9 -3 -213 -6 -454 -6 -358 0 -440 2 -449
14 -9 10 2 33 48 104 33 49 68 95 78 101 12 7 129 10 334 11 288 0 319 -2 337
-17z m-654 -429 c9 -24 7 -97 -4 -114 -7 -12 -32 -14 -132 -12 -80 2 -125 8
-130 15 -10 15 -10 111 -1 120 3 4 64 7 134 7 106 0 128 -3 133 -16z m94 4
c17 -17 15 -103 -3 -118 -29 -24 -45 -4 -45 58 0 32 3 62 7 65 10 11 28 8 41
-5z m66 -4 c9 -23 7 -97 -3 -113 -5 -8 -16 -11 -25 -8 -12 5 -16 20 -16 65 0
32 3 62 7 65 11 12 31 7 37 -9z m64 -33 c4 -56 -4 -91 -22 -91 -22 0 -35 84
-20 125 13 33 39 12 42 -34z m85 29 l14 -21 6 21 c9 33 35 24 43 -15 9 -48 -3
-105 -22 -105 -8 0 -17 7 -21 15 -5 14 -8 14 -25 -2 -30 -27 -52 -6 -56 53 -3
37 1 51 14 61 24 17 30 16 47 -7z m125 -29 c4 -56 -4 -91 -22 -91 -18 0 -26
22 -26 70 0 51 9 72 29 68 11 -2 17 -16 19 -47z m73 38 c15 -7 24 -7 34 1 24
20 35 1 35 -60 0 -61 -11 -80 -35 -60 -10 8 -19 8 -34 1 -37 -20 -51 -4 -51
59 0 52 5 63 28 69 2 1 12 -4 23 -10z m387 -38 c6 -89 7 -88 -120 -93 -62 -3
-121 -1 -130 4 -14 7 -18 21 -18 67 0 32 3 61 7 65 4 3 63 5 132 4 l126 -3 3
-44z m-997 -143 c9 -7 31 -33 49 -56 42 -56 32 -64 -72 -60 -59 2 -83 8 -105
24 -31 23 -42 67 -22 90 15 18 129 19 150 2z m983 -10 c16 -26 -4 -68 -44 -89
-24 -13 -55 -19 -101 -19 -95 0 -102 14 -43 79 l47 52 65 -3 c48 -2 68 -7 76
-20z m-305 -17 c9 -6 11 -18 7 -36 -12 -49 -53 -57 -285 -53 -181 3 -209 5
-233 22 -26 17 -37 53 -21 69 10 10 516 8 532 -2z"/>
</g>
</svg>
